<mxfile host="app.diagrams.net" modified="2024-04-24T10:34:13.895Z" agent="Mozilla/5.0 (Windows NT 10.0; Win64; x64; rv:125.0) Gecko/20100101 Firefox/125.0" version="24.2.8" etag="sB_Uym7o3C9coR3gsjTn" type="github">
  <diagram name="Страница — 1" id="JynRoLV0JZsdazdOKplo">
    <mxGraphModel>
      <root>
        <mxCell id="0" />
        <mxCell id="1" parent="0" />
      </root>
    </mxGraphModel>
  </diagram>
</mxfile>
